<svg xmlns="http://www.w3.org/2000/svg" width="17" height="17" viewBox="0 0 17 17">
    <g fill="none" fill-rule="evenodd">
        <path fill="#4285F4" d="M8.841 7.061v3h4.692A5.27 5.27 0 0 1 3.233 8.5 5.268 5.268 0 0 1 8.5 3.232c1.36 0 2.595.52 3.53 1.365l2.2-2.356a8.487 8.487 0 1 0 2.756 6.26c.001-.492-.044-.972-.125-1.44h-8.02z"/>
        <path fill="#EA4335" d="M8.5 3.232c1.36 0 2.595.52 3.53 1.365l2.2-2.356A8.456 8.456 0 0 0 8.5.013a8.485 8.485 0 0 0-7.499 4.511L3.591 6.6A5.266 5.266 0 0 1 8.5 3.232z"/>
        <path fill="#FBBC05" d="M3.232 8.5c0-.671.13-1.31.36-1.901l-2.59-2.075A8.448 8.448 0 0 0 .011 8.5c0 1.444.362 2.802.998 3.992l2.575-2.11A5.246 5.246 0 0 1 3.232 8.5z"/>
        <path fill="#34A853" d="M11.429 12.875a5.238 5.238 0 0 1-2.929.893 5.265 5.265 0 0 1-4.916-3.386l-2.574 2.11a8.485 8.485 0 0 0 13.006 2.455l-2.587-2.072z"/>
        <path fill="#4285F4" d="M16.987 8.5c0-.491-.045-.971-.126-1.439h-8.02v3h4.692a5.278 5.278 0 0 1-2.104 2.814l2.587 2.072A8.466 8.466 0 0 0 16.987 8.5z"/>
    </g>
</svg>
